<svg xmlns="http://www.w3.org/2000/svg" version="1.1" width="184.7mm" height="130.7mm" viewBox = " 0 0 654.449357 463.11061699999993" >
<!-- Front--> 
<g transform="translate(22.5000185, 22.5000185) " > 
<polygon style="stroke:#000000; fill:none; stroke-width:0.90000074" points="0, 0 30.118135, 0 30.118135, 10.62993 60.23627, 10.62993 60.23627, 0 81.49613, 0 81.49613, 10.62993 102.75599, 10.62993 102.75599, 0 124.01585, 0 124.01585, 10.62993 154.133985, 10.62993 154.133985, 0 184.25212, 0 184.25212, 28.34648 173.62219, 28.34648 173.62219, 56.69296 184.25212, 56.69296 184.25212, 77.95282 173.62219, 77.95282 173.62219, 99.21268 184.25212, 99.21268 184.25212, 120.47254 173.62219, 120.47254 173.62219, 148.81902 184.25212, 148.81902 184.25212, 177.1655 154.133985, 177.1655 154.133985, 166.53557 124.01585, 166.53557 124.01585, 177.1655 102.75599, 177.1655 102.75599, 166.53557 81.49613, 166.53557 81.49613, 177.1655 60.23627, 177.1655 60.23627, 166.53557 30.118135, 166.53557 30.118135, 177.1655 0, 177.1655 0, 148.81902 10.62993, 148.81902 10.62993, 120.47254 0, 120.47254 0, 99.21268 10.62993, 99.21268 10.62993, 77.95282 0, 77.95282 0, 56.69296 10.62993, 56.69296 10.62993, 28.34648 0, 28.34648 "/> 
</g>
<!-- Back--> 
<g transform="translate(206.7521385, 22.5000185) " > 
<polygon style="stroke:#000000; fill:none; stroke-width:0.90000074" points="0, 0 30.118135, 0 30.118135, 10.62993 60.23627, 10.62993 60.23627, 0 81.49613, 0 81.49613, 10.62993 102.75599, 10.62993 102.75599, 0 124.01585, 0 124.01585, 10.62993 154.133985, 10.62993 154.133985, 0 184.25212, 0 184.25212, 28.34648 173.62219, 28.34648 173.62219, 56.69296 184.25212, 56.69296 184.25212, 77.95282 173.62219, 77.95282 173.62219, 99.21268 184.25212, 99.21268 184.25212, 120.47254 173.62219, 120.47254 173.62219, 148.81902 184.25212, 148.81902 184.25212, 177.1655 154.133985, 177.1655 154.133985, 166.53557 124.01585, 166.53557 124.01585, 177.1655 102.75599, 177.1655 102.75599, 166.53557 81.49613, 166.53557 81.49613, 177.1655 60.23627, 177.1655 60.23627, 166.53557 30.118135, 166.53557 30.118135, 177.1655 0, 177.1655 0, 148.81902 10.62993, 148.81902 10.62993, 120.47254 0, 120.47254 0, 99.21268 10.62993, 99.21268 10.62993, 77.95282 0, 77.95282 0, 56.69296 10.62993, 56.69296 10.62993, 28.34648 0, 28.34648 "/> 
</g>
<!-- Left--> 
<g transform="translate(391.0042585, 22.5000185) " > 
<polygon style="stroke:#000000; fill:none; stroke-width:0.90000074" points="10.62993, 0 33.661445, 0 33.661445, 10.62993 67.32289, 10.62993 67.32289, 0 88.58275, 0 88.58275, 10.62993 109.84261000000001, 10.62993 109.84261000000001, 0 131.10246999999998, 0 131.10246999999998, 10.62993 152.36233, 10.62993 152.36233, 0 173.62219, 0 173.62219, 10.62993 207.283635, 10.62993 207.283635, 0 230.31515, 0 230.31515, 28.34648 240.94508, 28.34648 240.94508, 56.69296 230.31515, 56.69296 230.31515, 77.95282 240.94508, 77.95282 240.94508, 99.21268 230.31515, 99.21268 230.31515, 120.47254 240.94508, 120.47254 240.94508, 148.81902 230.31515, 148.81902 230.31515000000002, 177.1655 207.283635, 177.1655 207.283635, 166.53557 173.62219, 166.53557 173.62219, 177.1655 152.36233, 177.1655 152.36233, 166.53557 131.10246999999998, 166.53557 131.10246999999998, 177.1655 109.84261000000001, 177.1655 109.84261000000001, 166.53557 88.58275, 166.53557 88.58275, 177.1655 67.32289, 177.1655 67.32289, 166.53557 33.661445, 166.53557 33.661445, 177.1655 10.62993, 177.1655 10.62993, 148.81902 0, 148.81902 0, 120.47254 10.62993, 120.47254 10.62993, 99.21268 0, 99.21268 0, 77.95282 10.62993, 77.95282 10.62993, 56.69296 0, 56.69296 0, 28.34648 10.62993, 28.34648 "/> 
</g>
<!-- Right--> 
<g transform="translate(391.0042585, 199.6655185) " > 
<polygon style="stroke:#000000; fill:none; stroke-width:0.90000074" points="10.62993, 0 33.661445, 0 33.661445, 10.62993 67.32289, 10.62993 67.32289, 0 88.58275, 0 88.58275, 10.62993 109.84261000000001, 10.62993 109.84261000000001, 0 131.10246999999998, 0 131.10246999999998, 10.62993 152.36233, 10.62993 152.36233, 0 173.62219, 0 173.62219, 10.62993 207.283635, 10.62993 207.283635, 0 230.31515, 0 230.31515, 28.34648 240.94508, 28.34648 240.94508, 56.69296 230.31515, 56.69296 230.31515, 77.95282 240.94508, 77.95282 240.94508, 99.21268 230.31515, 99.21268 230.31515, 120.47254 240.94508, 120.47254 240.94508, 148.81902 230.31515, 148.81902 230.31515000000002, 177.1655 207.283635, 177.1655 207.283635, 166.53557 173.62219, 166.53557 173.62219, 177.1655 152.36233, 177.1655 152.36233, 166.53557 131.10246999999998, 166.53557 131.10246999999998, 177.1655 109.84261000000001, 177.1655 109.84261000000001, 166.53557 88.58275, 166.53557 88.58275, 177.1655 67.32289, 177.1655 67.32289, 166.53557 33.661445, 166.53557 33.661445, 177.1655 10.62993, 177.1655 10.62993, 148.81902 0, 148.81902 0, 120.47254 10.62993, 120.47254 10.62993, 99.21268 0, 99.21268 0, 77.95282 10.62993, 77.95282 10.62993, 56.69296 0, 56.69296 0, 28.34648 10.62993, 28.34648 "/> 
</g>
<!-- Top--> 
<g transform="translate(22.5000185, 199.6655185) " > 
<polygon style="stroke:#000000; fill:none; stroke-width:0.90000074" points="10.62993, 10.62993 30.118135, 10.62993 30.118135, 0 60.23627, 0 60.23627, 10.62993 81.49613, 10.62993 81.49613, 0 102.75599, 0 102.75599, 10.62993 124.01585, 10.62993 124.01585, 0 154.133985, 0 154.133985, 10.62993 173.62219, 10.62993 173.62219, 33.661445 184.25212, 33.661445 184.25212, 67.32289 173.62219, 67.32289 173.62219, 88.58275 184.25212, 88.58275 184.25212, 109.84261000000001 173.62219, 109.84261000000001 173.62219, 131.10246999999998 184.25212, 131.10246999999998 184.25212, 152.36233 173.62219, 152.36233 173.62219, 173.62219 184.25212, 173.62219 184.25212, 207.283635 173.62219, 207.283635 173.62219, 230.31515 154.133985, 230.31515 154.133985, 240.94508 124.01585, 240.94508 124.01585, 230.31515 102.75599, 230.31515 102.75599, 240.94508 81.49613, 240.94508 81.49613, 230.31515 60.23627, 230.31515 60.23627, 240.94508 30.118135, 240.94508 30.118135, 230.31515 10.62993, 230.31515000000002 10.62993, 207.283635 0, 207.283635 0, 173.62219 10.62993, 173.62219 10.62993, 152.36233 0, 152.36233 0, 131.10246999999998 10.62993, 131.10246999999998 10.62993, 109.84261000000001 0, 109.84261000000001 0, 88.58275 10.62993, 88.58275 10.62993, 67.32289 0, 67.32289 0, 33.661445 10.62993, 33.661445 "/> 
</g>
<!-- Bottom--> 
<g transform="translate(206.7521385, 199.6655185) " > 
<polygon style="stroke:#000000; fill:none; stroke-width:0.90000074" points="10.62993, 10.62993 30.118135, 10.62993 30.118135, 0 60.23627, 0 60.23627, 10.62993 81.49613, 10.62993 81.49613, 0 102.75599, 0 102.75599, 10.62993 124.01585, 10.62993 124.01585, 0 154.133985, 0 154.133985, 10.62993 173.62219, 10.62993 173.62219, 33.661445 184.25212, 33.661445 184.25212, 67.32289 173.62219, 67.32289 173.62219, 88.58275 184.25212, 88.58275 184.25212, 109.84261000000001 173.62219, 109.84261000000001 173.62219, 131.10246999999998 184.25212, 131.10246999999998 184.25212, 152.36233 173.62219, 152.36233 173.62219, 173.62219 184.25212, 173.62219 184.25212, 207.283635 173.62219, 207.283635 173.62219, 230.31515 154.133985, 230.31515 154.133985, 240.94508 124.01585, 240.94508 124.01585, 230.31515 102.75599, 230.31515 102.75599, 240.94508 81.49613, 240.94508 81.49613, 230.31515 60.23627, 230.31515 60.23627, 240.94508 30.118135, 240.94508 30.118135, 230.31515 10.62993, 230.31515000000002 10.62993, 207.283635 0, 207.283635 0, 173.62219 10.62993, 173.62219 10.62993, 152.36233 0, 152.36233 0, 131.10246999999998 10.62993, 131.10246999999998 10.62993, 109.84261000000001 0, 109.84261000000001 0, 88.58275 10.62993, 88.58275 10.62993, 67.32289 0, 67.32289 0, 33.661445 10.62993, 33.661445 "/> 
</g></svg>