<svg xmlns="http://www.w3.org/2000/svg" version="1.1" width="244.7mm" height="155.7mm" viewBox = " 0 0 867.047957 551.693367" >
<!-- Front--> 
<g transform="translate(22.5000185, 22.5000185) " > 
<polygon style="stroke:#000000; fill:none; stroke-width:0.90000074" points="0, 0 28.34648, 0 28.34648, 10.62993 56.69296, 10.62993 56.69296, 0 74.40951, 0 74.40951, 10.62993 92.12606, 10.62993 92.12606, 0 109.84261, 0 109.84261, 10.62993 127.55915999999999, 10.62993 127.55915999999999, 0 145.27571, 0 145.27571, 10.62993 173.62219, 10.62993 173.62219, 0 201.96867, 0 201.96867, 17.716549999999998 191.33874, 17.716549999999998 191.33874, 35.433099999999996 201.96867, 35.433099999999996 201.96867, 53.149649999999994 191.33874, 53.149649999999994 191.33874, 70.86619999999999 201.96867, 70.86619999999999 201.96866999999997, 88.58275 173.62219, 88.58275 173.62219, 77.95282 145.27571, 77.95282 145.27571, 88.58275 127.55915999999999, 88.58275 127.55915999999999, 77.95282 109.84261, 77.95282 109.84261, 88.58275 92.12606, 88.58275 92.12606, 77.95282 74.40951, 77.95282 74.40951, 88.58275 56.69296, 88.58275 56.69296, 77.95282 28.34648, 77.95282 28.34648, 88.58275 0, 88.58274999999999 0, 70.86619999999999 10.62993, 70.86619999999999 10.62993, 53.149649999999994 0, 53.149649999999994 0, 35.433099999999996 10.62993, 35.433099999999996 10.62993, 17.716549999999998 0, 17.716549999999998 "/> 
</g>
<!-- Back--> 
<g transform="translate(224.4686885, 22.5000185) " > 
<polygon style="stroke:#000000; fill:none; stroke-width:0.90000074" points="0, 0 28.34648, 0 28.34648, 10.62993 56.69296, 10.62993 56.69296, 0 74.40951, 0 74.40951, 10.62993 92.12606, 10.62993 92.12606, 0 109.84261, 0 109.84261, 10.62993 127.55915999999999, 10.62993 127.55915999999999, 0 145.27571, 0 145.27571, 10.62993 173.62219, 10.62993 173.62219, 0 201.96867, 0 201.96867, 17.716549999999998 191.33874, 17.716549999999998 191.33874, 35.433099999999996 201.96867, 35.433099999999996 201.96867, 53.149649999999994 191.33874, 53.149649999999994 191.33874, 70.86619999999999 201.96867, 70.86619999999999 201.96866999999997, 88.58275 173.62219, 88.58275 173.62219, 77.95282 145.27571, 77.95282 145.27571, 88.58275 127.55915999999999, 88.58275 127.55915999999999, 77.95282 109.84261, 77.95282 109.84261, 88.58275 92.12606, 88.58275 92.12606, 77.95282 74.40951, 77.95282 74.40951, 88.58275 56.69296, 88.58275 56.69296, 77.95282 28.34648, 77.95282 28.34648, 88.58275 0, 88.58274999999999 0, 70.86619999999999 10.62993, 70.86619999999999 10.62993, 53.149649999999994 0, 53.149649999999994 0, 35.433099999999996 10.62993, 35.433099999999996 10.62993, 17.716549999999998 0, 17.716549999999998 "/> 
</g>
<!-- Left--> 
<g transform="translate(426.43735849999996, 22.5000185) " > 
<polygon style="stroke:#000000; fill:none; stroke-width:0.90000074" points="10.62993, 0 29.2323075, 0 29.2323075, 10.62993 58.464615, 10.62993 58.464615, 0 76.181165, 0 76.181165, 10.62993 93.897715, 10.62993 93.897715, 0 111.61426499999999, 0 111.61426499999999, 10.62993 129.330815, 10.62993 129.330815, 0 147.04736499999999, 0 147.04736499999999, 10.62993 164.763915, 10.62993 164.763915, 0 182.48046499999998, 0 182.48046499999998, 10.62993 200.197015, 10.62993 200.197015, 0 217.91356499999998, 0 217.91356499999998, 10.62993 235.630115, 10.62993 235.630115, 0 253.346665, 0 253.346665, 10.62993 271.06321499999996, 10.62993 271.06321499999996, 0 288.77976499999994, 0 288.77976499999994, 10.62993 306.496315, 10.62993 306.496315, 0 324.21286499999997, 0 324.21286499999997, 10.62993 341.92941499999995, 10.62993 341.92941499999995, 0 359.64596499999993, 0 359.64596499999993, 10.62993 388.8782725, 10.62993 388.8782725, 0 407.48064999999997, 0 407.48064999999997, 17.716549999999998 418.11057999999997, 17.716549999999998 418.11057999999997, 35.433099999999996 407.48064999999997, 35.433099999999996 407.48064999999997, 53.149649999999994 418.11057999999997, 53.149649999999994 418.11057999999997, 70.86619999999999 407.48064999999997, 70.86619999999999 407.48064999999997, 88.58275 388.8782725, 88.58275 388.8782725, 77.95282 359.64596499999993, 77.95282 359.64596499999993, 88.58275 341.92941499999995, 88.58275 341.92941499999995, 77.95282 324.21286499999997, 77.95282 324.21286499999997, 88.58275 306.496315, 88.58275 306.496315, 77.95282 288.77976499999994, 77.95282 288.77976499999994, 88.58275 271.06321499999996, 88.58275 271.06321499999996, 77.95282 253.346665, 77.95282 253.346665, 88.58275 235.630115, 88.58275 235.630115, 77.95282 217.91356499999998, 77.95282 217.91356499999998, 88.58275 200.197015, 88.58275 200.197015, 77.95282 182.48046499999998, 77.95282 182.48046499999998, 88.58275 164.763915, 88.58275 164.763915, 77.95282 147.04736499999999, 77.95282 147.04736499999999, 88.58275 129.330815, 88.58275 129.330815, 77.95282 111.61426499999999, 77.95282 111.61426499999999, 88.58275 93.897715, 88.58275 93.897715, 77.95282 76.181165, 77.95282 76.181165, 88.58275 58.464615, 88.58275 58.464615, 77.95282 29.2323075, 77.95282 29.2323075, 88.58275 10.62993, 88.58274999999999 10.62993, 70.86619999999999 0, 70.86619999999999 0, 53.149649999999994 10.62993, 53.149649999999994 10.62993, 35.433099999999996 0, 35.433099999999996 0, 17.716549999999998 10.62993, 17.716549999999998 "/> 
</g>
<!-- Right--> 
<g transform="translate(426.43735849999996, 111.0827685) " > 
<polygon style="stroke:#000000; fill:none; stroke-width:0.90000074" points="10.62993, 0 29.2323075, 0 29.2323075, 10.62993 58.464615, 10.62993 58.464615, 0 76.181165, 0 76.181165, 10.62993 93.897715, 10.62993 93.897715, 0 111.61426499999999, 0 111.61426499999999, 10.62993 129.330815, 10.62993 129.330815, 0 147.04736499999999, 0 147.04736499999999, 10.62993 164.763915, 10.62993 164.763915, 0 182.48046499999998, 0 182.48046499999998, 10.62993 200.197015, 10.62993 200.197015, 0 217.91356499999998, 0 217.91356499999998, 10.62993 235.630115, 10.62993 235.630115, 0 253.346665, 0 253.346665, 10.62993 271.06321499999996, 10.62993 271.06321499999996, 0 288.77976499999994, 0 288.77976499999994, 10.62993 306.496315, 10.62993 306.496315, 0 324.21286499999997, 0 324.21286499999997, 10.62993 341.92941499999995, 10.62993 341.92941499999995, 0 359.64596499999993, 0 359.64596499999993, 10.62993 388.8782725, 10.62993 388.8782725, 0 407.48064999999997, 0 407.48064999999997, 17.716549999999998 418.11057999999997, 17.716549999999998 418.11057999999997, 35.433099999999996 407.48064999999997, 35.433099999999996 407.48064999999997, 53.149649999999994 418.11057999999997, 53.149649999999994 418.11057999999997, 70.86619999999999 407.48064999999997, 70.86619999999999 407.48064999999997, 88.58275 388.8782725, 88.58275 388.8782725, 77.95282 359.64596499999993, 77.95282 359.64596499999993, 88.58275 341.92941499999995, 88.58275 341.92941499999995, 77.95282 324.21286499999997, 77.95282 324.21286499999997, 88.58275 306.496315, 88.58275 306.496315, 77.95282 288.77976499999994, 77.95282 288.77976499999994, 88.58275 271.06321499999996, 88.58275 271.06321499999996, 77.95282 253.346665, 77.95282 253.346665, 88.58275 235.630115, 88.58275 235.630115, 77.95282 217.91356499999998, 77.95282 217.91356499999998, 88.58275 200.197015, 88.58275 200.197015, 77.95282 182.48046499999998, 77.95282 182.48046499999998, 88.58275 164.763915, 88.58275 164.763915, 77.95282 147.04736499999999, 77.95282 147.04736499999999, 88.58275 129.330815, 88.58275 129.330815, 77.95282 111.61426499999999, 77.95282 111.61426499999999, 88.58275 93.897715, 88.58275 93.897715, 77.95282 76.181165, 77.95282 76.181165, 88.58275 58.464615, 88.58275 58.464615, 77.95282 29.2323075, 77.95282 29.2323075, 88.58275 10.62993, 88.58274999999999 10.62993, 70.86619999999999 0, 70.86619999999999 0, 53.149649999999994 10.62993, 53.149649999999994 10.62993, 35.433099999999996 0, 35.433099999999996 0, 17.716549999999998 10.62993, 17.716549999999998 "/> 
</g>
<!-- Top--> 
<g transform="translate(22.5000185, 111.0827685) " > 
<polygon style="stroke:#000000; fill:none; stroke-width:0.90000074" points="10.62993, 10.62993 28.34648, 10.62993 28.34648, 0 56.69296, 0 56.69296, 10.62993 74.40951, 10.62993 74.40951, 0 92.12606, 0 92.12606, 10.62993 109.84261, 10.62993 109.84261, 0 127.55915999999999, 0 127.55915999999999, 10.62993 145.27571, 10.62993 145.27571, 0 173.62219, 0 173.62219, 10.62993 191.33874, 10.62993 191.33874, 29.2323075 201.96867, 29.2323075 201.96867, 58.464615 191.33874, 58.464615 191.33874, 76.181165 201.96867, 76.181165 201.96867, 93.897715 191.33874, 93.897715 191.33874, 111.61426499999999 201.96867, 111.61426499999999 201.96867, 129.330815 191.33874, 129.330815 191.33874, 147.04736499999999 201.96867, 147.04736499999999 201.96867, 164.763915 191.33874, 164.763915 191.33874, 182.48046499999998 201.96867, 182.48046499999998 201.96867, 200.197015 191.33874, 200.197015 191.33874, 217.91356499999998 201.96867, 217.91356499999998 201.96867, 235.630115 191.33874, 235.630115 191.33874, 253.346665 201.96867, 253.346665 201.96867, 271.06321499999996 191.33874, 271.06321499999996 191.33874, 288.77976499999994 201.96867, 288.77976499999994 201.96867, 306.496315 191.33874, 306.496315 191.33874, 324.21286499999997 201.96867, 324.21286499999997 201.96867, 341.92941499999995 191.33874, 341.92941499999995 191.33874, 359.64596499999993 201.96867, 359.64596499999993 201.96867, 388.8782725 191.33874, 388.8782725 191.33873999999997, 407.48064999999997 173.62219, 407.48064999999997 173.62219, 418.11057999999997 145.27571, 418.11057999999997 145.27571, 407.48064999999997 127.55915999999999, 407.48064999999997 127.55915999999999, 418.11057999999997 109.84261, 418.11057999999997 109.84261, 407.48064999999997 92.12606, 407.48064999999997 92.12606, 418.11057999999997 74.40951, 418.11057999999997 74.40951, 407.48064999999997 56.69296, 407.48064999999997 56.69296, 418.11057999999997 28.34648, 418.11057999999997 28.34648, 407.48064999999997 10.62993, 407.48064999999997 10.62993, 388.8782725 0, 388.8782725 0, 359.64596499999993 10.62993, 359.64596499999993 10.62993, 341.92941499999995 0, 341.92941499999995 0, 324.21286499999997 10.62993, 324.21286499999997 10.62993, 306.496315 0, 306.496315 0, 288.77976499999994 10.62993, 288.77976499999994 10.62993, 271.06321499999996 0, 271.06321499999996 0, 253.346665 10.62993, 253.346665 10.62993, 235.630115 0, 235.630115 0, 217.91356499999998 10.62993, 217.91356499999998 10.62993, 200.197015 0, 200.197015 0, 182.48046499999998 10.62993, 182.48046499999998 10.62993, 164.763915 0, 164.763915 0, 147.04736499999999 10.62993, 147.04736499999999 10.62993, 129.330815 0, 129.330815 0, 111.61426499999999 10.62993, 111.61426499999999 10.62993, 93.897715 0, 93.897715 0, 76.181165 10.62993, 76.181165 10.62993, 58.464615 0, 58.464615 0, 29.2323075 10.62993, 29.2323075 "/> 
</g>
<!-- Bottom--> 
<g transform="translate(224.4686885, 111.0827685) " > 
<polygon style="stroke:#000000; fill:none; stroke-width:0.90000074" points="10.62993, 10.62993 28.34648, 10.62993 28.34648, 0 56.69296, 0 56.69296, 10.62993 74.40951, 10.62993 74.40951, 0 92.12606, 0 92.12606, 10.62993 109.84261, 10.62993 109.84261, 0 127.55915999999999, 0 127.55915999999999, 10.62993 145.27571, 10.62993 145.27571, 0 173.62219, 0 173.62219, 10.62993 191.33874, 10.62993 191.33874, 29.2323075 201.96867, 29.2323075 201.96867, 58.464615 191.33874, 58.464615 191.33874, 76.181165 201.96867, 76.181165 201.96867, 93.897715 191.33874, 93.897715 191.33874, 111.61426499999999 201.96867, 111.61426499999999 201.96867, 129.330815 191.33874, 129.330815 191.33874, 147.04736499999999 201.96867, 147.04736499999999 201.96867, 164.763915 191.33874, 164.763915 191.33874, 182.48046499999998 201.96867, 182.48046499999998 201.96867, 200.197015 191.33874, 200.197015 191.33874, 217.91356499999998 201.96867, 217.91356499999998 201.96867, 235.630115 191.33874, 235.630115 191.33874, 253.346665 201.96867, 253.346665 201.96867, 271.06321499999996 191.33874, 271.06321499999996 191.33874, 288.77976499999994 201.96867, 288.77976499999994 201.96867, 306.496315 191.33874, 306.496315 191.33874, 324.21286499999997 201.96867, 324.21286499999997 201.96867, 341.92941499999995 191.33874, 341.92941499999995 191.33874, 359.64596499999993 201.96867, 359.64596499999993 201.96867, 388.8782725 191.33874, 388.8782725 191.33873999999997, 407.48064999999997 173.62219, 407.48064999999997 173.62219, 418.11057999999997 145.27571, 418.11057999999997 145.27571, 407.48064999999997 127.55915999999999, 407.48064999999997 127.55915999999999, 418.11057999999997 109.84261, 418.11057999999997 109.84261, 407.48064999999997 92.12606, 407.48064999999997 92.12606, 418.11057999999997 74.40951, 418.11057999999997 74.40951, 407.48064999999997 56.69296, 407.48064999999997 56.69296, 418.11057999999997 28.34648, 418.11057999999997 28.34648, 407.48064999999997 10.62993, 407.48064999999997 10.62993, 388.8782725 0, 388.8782725 0, 359.64596499999993 10.62993, 359.64596499999993 10.62993, 341.92941499999995 0, 341.92941499999995 0, 324.21286499999997 10.62993, 324.21286499999997 10.62993, 306.496315 0, 306.496315 0, 288.77976499999994 10.62993, 288.77976499999994 10.62993, 271.06321499999996 0, 271.06321499999996 0, 253.346665 10.62993, 253.346665 10.62993, 235.630115 0, 235.630115 0, 217.91356499999998 10.62993, 217.91356499999998 10.62993, 200.197015 0, 200.197015 0, 182.48046499999998 10.62993, 182.48046499999998 10.62993, 164.763915 0, 164.763915 0, 147.04736499999999 10.62993, 147.04736499999999 10.62993, 129.330815 0, 129.330815 0, 111.61426499999999 10.62993, 111.61426499999999 10.62993, 93.897715 0, 93.897715 0, 76.181165 10.62993, 76.181165 10.62993, 58.464615 0, 58.464615 0, 29.2323075 10.62993, 29.2323075 "/> 
</g></svg>