<svg xmlns="http://www.w3.org/2000/svg" version="1.1" width="400mm" height="180mm" viewBox = " 0 0 1417.324 637.7958" >
<!-- Front--> 
<g transform="translate(35.433099999999996, 35.433099999999996) " > 
<polygon style="stroke:#000000; fill:none; stroke-width:0.90000074" points="0, 0 52.263822499999996, 0 52.263822499999996, 10.62993 104.52764499999999, 10.62993 104.52764499999999, 0 136.41743499999998, 0 136.41743499999998, 10.62993 168.307225, 10.62993 168.307225, 0 200.19701499999996, 0 200.19701499999996, 10.62993 232.08680499999997, 10.62993 232.08680499999997, 0 263.976595, 0 263.976595, 10.62993 295.866385, 10.62993 295.866385, 0 327.756175, 0 327.756175, 10.62993 359.645965, 10.62993 359.645965, 0 391.535755, 0 391.535755, 10.62993 443.79957749999994, 10.62993 443.79957749999994, 0 496.0634, 0 496.0634, 45.1772025 485.43347, 45.1772025 485.43347, 90.354405 496.0634, 90.354405 496.0634, 122.24419499999999 485.43347, 122.24419499999999 485.43347, 167.4213975 496.0634, 167.4213975 496.0634, 212.5986 443.79957749999994, 212.5986 443.79957749999994, 201.96867 391.535755, 201.96867 391.535755, 212.5986 359.645965, 212.5986 359.645965, 201.96867 327.756175, 201.96867 327.756175, 212.5986 295.866385, 212.5986 295.866385, 201.96867 263.976595, 201.96867 263.976595, 212.5986 232.08680499999997, 212.5986 232.08680499999997, 201.96867 200.19701499999996, 201.96867 200.19701499999996, 212.5986 168.307225, 212.5986 168.307225, 201.96867 136.41743499999998, 201.96867 136.41743499999998, 212.5986 104.52764499999999, 212.5986 104.52764499999999, 201.96867 52.263822499999996, 201.96867 52.263822499999996, 212.5986 0, 212.5986 0, 167.4213975 10.62993, 167.4213975 10.62993, 122.24419499999999 0, 122.24419499999999 0, 90.354405 10.62993, 90.354405 10.62993, 45.1772025 0, 45.1772025 "/> 
</g>
<!-- Back--> 
<g transform="translate(531.4965, 35.433099999999996) " > 
<polygon style="stroke:#000000; fill:none; stroke-width:0.90000074" points="0, 0 52.263822499999996, 0 52.263822499999996, 10.62993 104.52764499999999, 10.62993 104.52764499999999, 0 136.41743499999998, 0 136.41743499999998, 10.62993 168.307225, 10.62993 168.307225, 0 200.19701499999996, 0 200.19701499999996, 10.62993 232.08680499999997, 10.62993 232.08680499999997, 0 263.976595, 0 263.976595, 10.62993 295.866385, 10.62993 295.866385, 0 327.756175, 0 327.756175, 10.62993 359.645965, 10.62993 359.645965, 0 391.535755, 0 391.535755, 10.62993 443.79957749999994, 10.62993 443.79957749999994, 0 496.0634, 0 496.0634, 45.1772025 485.43347, 45.1772025 485.43347, 90.354405 496.0634, 90.354405 496.0634, 122.24419499999999 485.43347, 122.24419499999999 485.43347, 167.4213975 496.0634, 167.4213975 496.0634, 212.5986 443.79957749999994, 212.5986 443.79957749999994, 201.96867 391.535755, 201.96867 391.535755, 212.5986 359.645965, 212.5986 359.645965, 201.96867 327.756175, 201.96867 327.756175, 212.5986 295.866385, 212.5986 295.866385, 201.96867 263.976595, 201.96867 263.976595, 212.5986 232.08680499999997, 212.5986 232.08680499999997, 201.96867 200.19701499999996, 201.96867 200.19701499999996, 212.5986 168.307225, 212.5986 168.307225, 201.96867 136.41743499999998, 201.96867 136.41743499999998, 212.5986 104.52764499999999, 212.5986 104.52764499999999, 201.96867 52.263822499999996, 201.96867 52.263822499999996, 212.5986 0, 212.5986 0, 167.4213975 10.62993, 167.4213975 10.62993, 122.24419499999999 0, 122.24419499999999 0, 90.354405 10.62993, 90.354405 10.62993, 45.1772025 0, 45.1772025 "/> 
</g>
<!-- Left--> 
<g transform="translate(1027.5599, 35.433099999999996) " > 
<polygon style="stroke:#000000; fill:none; stroke-width:0.90000074" points="10.62993, 0 48.7205125, 0 48.7205125, 10.62993 97.441025, 10.62993 97.441025, 0 129.330815, 0 129.330815, 10.62993 161.22060499999998, 10.62993 161.22060499999998, 0 193.11039499999998, 0 193.11039499999998, 10.62993 225.000185, 10.62993 225.000185, 0 256.889975, 0 256.889975, 10.62993 305.6104875, 10.62993 305.6104875, 0 343.70107, 0 343.70107, 45.1772025 354.331, 45.1772025 354.331, 90.354405 343.70107, 90.354405 343.70107, 122.24419499999999 354.331, 122.24419499999999 354.331, 167.4213975 343.70107, 167.4213975 343.70107, 212.5986 305.6104875, 212.5986 305.6104875, 201.96867 256.889975, 201.96867 256.889975, 212.5986 225.000185, 212.5986 225.000185, 201.96867 193.11039499999998, 201.96867 193.11039499999998, 212.5986 161.22060499999998, 212.5986 161.22060499999998, 201.96867 129.330815, 201.96867 129.330815, 212.5986 97.441025, 212.5986 97.441025, 201.96867 48.7205125, 201.96867 48.7205125, 212.5986 10.62993, 212.5986 10.62993, 167.4213975 0, 167.4213975 0, 122.24419499999999 10.62993, 122.24419499999999 10.62993, 90.354405 0, 90.354405 0, 45.1772025 10.62993, 45.1772025 "/> 
</g>
<!-- Right--> 
<g transform="translate(1027.5599, 248.0317) " > 
<polygon style="stroke:#000000; fill:none; stroke-width:0.90000074" points="10.62993, 0 48.7205125, 0 48.7205125, 10.62993 97.441025, 10.62993 97.441025, 0 129.330815, 0 129.330815, 10.62993 161.22060499999998, 10.62993 161.22060499999998, 0 193.11039499999998, 0 193.11039499999998, 10.62993 225.000185, 10.62993 225.000185, 0 256.889975, 0 256.889975, 10.62993 305.6104875, 10.62993 305.6104875, 0 343.70107, 0 343.70107, 45.1772025 354.331, 45.1772025 354.331, 90.354405 343.70107, 90.354405 343.70107, 122.24419499999999 354.331, 122.24419499999999 354.331, 167.4213975 343.70107, 167.4213975 343.70107, 212.5986 305.6104875, 212.5986 305.6104875, 201.96867 256.889975, 201.96867 256.889975, 212.5986 225.000185, 212.5986 225.000185, 201.96867 193.11039499999998, 201.96867 193.11039499999998, 212.5986 161.22060499999998, 212.5986 161.22060499999998, 201.96867 129.330815, 201.96867 129.330815, 212.5986 97.441025, 212.5986 97.441025, 201.96867 48.7205125, 201.96867 48.7205125, 212.5986 10.62993, 212.5986 10.62993, 167.4213975 0, 167.4213975 0, 122.24419499999999 10.62993, 122.24419499999999 10.62993, 90.354405 0, 90.354405 0, 45.1772025 10.62993, 45.1772025 "/> 
</g>
<!-- Top--> 
<g transform="translate(35.433099999999996, 248.0317) " > 
<polygon style="stroke:#000000; fill:none; stroke-width:0.90000074" points="10.62993, 10.62993 52.263822499999996, 10.62993 52.263822499999996, 0 104.52764499999999, 0 104.52764499999999, 10.62993 136.41743499999998, 10.62993 136.41743499999998, 0 168.307225, 0 168.307225, 10.62993 200.19701499999996, 10.62993 200.19701499999996, 0 232.08680499999997, 0 232.08680499999997, 10.62993 263.976595, 10.62993 263.976595, 0 295.866385, 0 295.866385, 10.62993 327.756175, 10.62993 327.756175, 0 359.645965, 0 359.645965, 10.62993 391.535755, 10.62993 391.535755, 0 443.79957749999994, 0 443.79957749999994, 10.62993 485.43347, 10.62993 485.43347, 48.7205125 496.0634, 48.7205125 496.0634, 97.441025 485.43347, 97.441025 485.43347, 129.330815 496.0634, 129.330815 496.0634, 161.22060499999998 485.43347, 161.22060499999998 485.43347, 193.11039499999998 496.0634, 193.11039499999998 496.0634, 225.000185 485.43347, 225.000185 485.43347, 256.889975 496.0634, 256.889975 496.0634, 305.6104875 485.43347, 305.6104875 485.43347, 343.70107 443.79957749999994, 343.70107 443.79957749999994, 354.331 391.535755, 354.331 391.535755, 343.70107 359.645965, 343.70107 359.645965, 354.331 327.756175, 354.331 327.756175, 343.70107 295.866385, 343.70107 295.866385, 354.331 263.976595, 354.331 263.976595, 343.70107 232.08680499999997, 343.70107 232.08680499999997, 354.331 200.19701499999996, 354.331 200.19701499999996, 343.70107 168.307225, 343.70107 168.307225, 354.331 136.41743499999998, 354.331 136.41743499999998, 343.70107 104.52764499999999, 343.70107 104.52764499999999, 354.331 52.263822499999996, 354.331 52.263822499999996, 343.70107 10.62993, 343.70107 10.62993, 305.6104875 0, 305.6104875 0, 256.889975 10.62993, 256.889975 10.62993, 225.000185 0, 225.000185 0, 193.11039499999998 10.62993, 193.11039499999998 10.62993, 161.22060499999998 0, 161.22060499999998 0, 129.330815 10.62993, 129.330815 10.62993, 97.441025 0, 97.441025 0, 48.7205125 10.62993, 48.7205125 "/> 
</g>
<!-- Bottom--> 
<g transform="translate(531.4965, 248.0317) " > 
<polygon style="stroke:#000000; fill:none; stroke-width:0.90000074" points="10.62993, 10.62993 52.263822499999996, 10.62993 52.263822499999996, 0 104.52764499999999, 0 104.52764499999999, 10.62993 136.41743499999998, 10.62993 136.41743499999998, 0 168.307225, 0 168.307225, 10.62993 200.19701499999996, 10.62993 200.19701499999996, 0 232.08680499999997, 0 232.08680499999997, 10.62993 263.976595, 10.62993 263.976595, 0 295.866385, 0 295.866385, 10.62993 327.756175, 10.62993 327.756175, 0 359.645965, 0 359.645965, 10.62993 391.535755, 10.62993 391.535755, 0 443.79957749999994, 0 443.79957749999994, 10.62993 485.43347, 10.62993 485.43347, 48.7205125 496.0634, 48.7205125 496.0634, 97.441025 485.43347, 97.441025 485.43347, 129.330815 496.0634, 129.330815 496.0634, 161.22060499999998 485.43347, 161.22060499999998 485.43347, 193.11039499999998 496.0634, 193.11039499999998 496.0634, 225.000185 485.43347, 225.000185 485.43347, 256.889975 496.0634, 256.889975 496.0634, 305.6104875 485.43347, 305.6104875 485.43347, 343.70107 443.79957749999994, 343.70107 443.79957749999994, 354.331 391.535755, 354.331 391.535755, 343.70107 359.645965, 343.70107 359.645965, 354.331 327.756175, 354.331 327.756175, 343.70107 295.866385, 343.70107 295.866385, 354.331 263.976595, 354.331 263.976595, 343.70107 232.08680499999997, 343.70107 232.08680499999997, 354.331 200.19701499999996, 354.331 200.19701499999996, 343.70107 168.307225, 343.70107 168.307225, 354.331 136.41743499999998, 354.331 136.41743499999998, 343.70107 104.52764499999999, 343.70107 104.52764499999999, 354.331 52.263822499999996, 354.331 52.263822499999996, 343.70107 10.62993, 343.70107 10.62993, 305.6104875 0, 305.6104875 0, 256.889975 10.62993, 256.889975 10.62993, 225.000185 0, 225.000185 0, 193.11039499999998 10.62993, 193.11039499999998 10.62993, 161.22060499999998 0, 161.22060499999998 0, 129.330815 10.62993, 129.330815 10.62993, 97.441025 0, 97.441025 0, 48.7205125 10.62993, 48.7205125 "/> 
</g></svg>