<?xml version="1.0" encoding="UTF-8" standalone="no"?>
<!-- Created with Inkscape (http://www.inkscape.org/) -->

<svg
   xmlns:dc="http://purl.org/dc/elements/1.1/"
   xmlns:cc="http://creativecommons.org/ns#"
   xmlns:rdf="http://www.w3.org/1999/02/22-rdf-syntax-ns#"
   xmlns:svg="http://www.w3.org/2000/svg"
   xmlns="http://www.w3.org/2000/svg"
   xmlns:sodipodi="http://sodipodi.sourceforge.net/DTD/sodipodi-0.dtd"
   xmlns:inkscape="http://www.inkscape.org/namespaces/inkscape"
   width="600mm"
   height="400mm"
   viewBox="0 0 2125.9843 1417.3228"
   id="svg2"
   version="1.1"
   inkscape:version="0.91 r13725"
   sodipodi:docname="housing-angle.svg">
  <defs
     id="defs4" />
  <sodipodi:namedview
     id="base"
     pagecolor="#ffffff"
     bordercolor="#666666"
     borderopacity="1.0"
     inkscape:pageopacity="0.0"
     inkscape:pageshadow="2"
     inkscape:zoom="1.6"
     inkscape:cx="190.03355"
     inkscape:cy="1091.015"
     inkscape:document-units="mm"
     inkscape:current-layer="layer6"
     showgrid="false"
     showguides="false"
     inkscape:guide-bbox="true"
     inkscape:window-width="1438"
     inkscape:window-height="841"
     inkscape:window-x="-8"
     inkscape:window-y="-8"
     inkscape:window-maximized="1">
    <sodipodi:guide
       position="107.50001,1062.9921"
       orientation="0,1"
       id="guide4136"
       inkscape:label=""
       inkscape:color="rgb(0,0,255)" />
    <sodipodi:guide
       position="285.00002,1204.7243"
       orientation="0,1"
       id="guide4138"
       inkscape:label=""
       inkscape:color="rgb(0,0,255)" />
    <sodipodi:guide
       position="35.433074,1354.9999"
       orientation="1,0"
       id="guide4142"
       inkscape:label=""
       inkscape:color="rgb(0,0,255)" />
    <sodipodi:guide
       position="145.2756,1354.9999"
       orientation="1,0"
       id="guide4144"
       inkscape:label=""
       inkscape:color="rgb(0,0,255)" />
    <sodipodi:guide
       position="340.15751,1397.4999"
       orientation="1,0"
       id="guide4146"
       inkscape:label=""
       inkscape:color="rgb(0,0,255)" />
    <sodipodi:guide
       position="389.76381,1279.9999"
       orientation="1,0"
       id="guide4148"
       inkscape:label=""
       inkscape:color="rgb(0,0,255)" />
    <sodipodi:guide
       position="170.58952,1187.0078"
       orientation="0,1"
       id="guide4150"
       inkscape:label=""
       inkscape:color="rgb(0,0,255)" />
    <sodipodi:guide
       position="197.10603,1151.5747"
       orientation="0,1"
       id="guide4152"
       inkscape:label=""
       inkscape:color="rgb(0,0,255)" />
    <sodipodi:guide
       position="192.68661,1080.7086"
       orientation="0,1"
       id="guide4156"
       inkscape:label=""
       inkscape:color="rgb(0,0,255)" />
    <sodipodi:guide
       position="223.62254,1116.1417"
       orientation="0,1"
       id="guide4158"
       inkscape:label=""
       inkscape:color="rgb(0,0,255)" />
    <sodipodi:guide
       position="354.33074,1246.2756"
       orientation="1,0"
       id="guide4160"
       inkscape:label=""
       inkscape:color="rgb(0,0,255)" />
    <sodipodi:guide
       position="322.44097,1258.65"
       orientation="1,0"
       id="guide4162"
       inkscape:label=""
       inkscape:color="rgb(0,0,255)" />
    <sodipodi:guide
       position="131.10237,1250.6951"
       orientation="1,0"
       id="guide4164"
       inkscape:label=""
       inkscape:color="rgb(0,0,255)" />
    <sodipodi:guide
       position="159.44883,1260.4178"
       orientation="1,0"
       id="guide4166"
       inkscape:label=""
       inkscape:color="rgb(0,0,255)" />
    <sodipodi:guide
       position="196.22215,1116.1417"
       orientation="1,0"
       id="guide4175" />
    <sodipodi:guide
       position="236.88079,1080.7086"
       orientation="1,0"
       id="guide4177" />
    <sodipodi:guide
       position="280.19108,1116.1417"
       orientation="1,0"
       id="guide4179" />
    <sodipodi:guide
       position="88.582684,1080.7086"
       orientation="1,0"
       id="guide4181"
       inkscape:label=""
       inkscape:color="rgb(0,0,255)" />
    <sodipodi:guide
       position="53.149611,1062.9921"
       orientation="1,0"
       id="guide4183"
       inkscape:label=""
       inkscape:color="rgb(0,0,255)" />
    <sodipodi:guide
       position="131.10237,1151.5747"
       orientation="1,0"
       id="guide4187" />
    <sodipodi:guide
       position="88.582684,1263.9533"
       orientation="1,0"
       id="guide4189" />
    <sodipodi:guide
       position="106.29922,1276.3277"
       orientation="1,0"
       id="guide4191"
       inkscape:label=""
       inkscape:color="rgb(0,0,255)" />
    <sodipodi:guide
       position="170.07875,1031.492"
       orientation="1,0"
       id="guide4197"
       inkscape:label=""
       inkscape:color="rgb(0,0,255)" />
    <sodipodi:guide
       position="217.81252,1013.3858"
       orientation="0,1"
       id="guide4199"
       inkscape:label=""
       inkscape:color="rgb(0,0,255)" />
    <sodipodi:guide
       position="251.56252,999.21254"
       orientation="0,1"
       id="guide4201"
       inkscape:label=""
       inkscape:color="rgb(0,0,255)" />
    <sodipodi:guide
       position="254.06252,970.86609"
       orientation="0,1"
       id="guide4203"
       inkscape:label=""
       inkscape:color="rgb(0,0,255)" />
    <sodipodi:guide
       position="259.06252,946.06294"
       orientation="0,1"
       id="guide4205"
       inkscape:label=""
       inkscape:color="rgb(0,0,255)" />
    <sodipodi:guide
       position="215.62502,1045.2755"
       orientation="0,1"
       id="guide4207"
       inkscape:label=""
       inkscape:color="rgb(0,0,255)" />
    <sodipodi:guide
       position="151.69651,963.77948"
       orientation="0,1"
       id="guide4226"
       inkscape:label=""
       inkscape:color="rgb(0,0,255)" />
  </sodipodi:namedview>
  <metadata
     id="metadata7">
    <rdf:RDF>
      <cc:Work
         rdf:about="">
        <dc:format>image/svg+xml</dc:format>
        <dc:type
           rdf:resource="http://purl.org/dc/dcmitype/StillImage" />
        <dc:title></dc:title>
      </cc:Work>
    </rdf:RDF>
  </metadata>
  <g
     inkscape:label="Ebene 1"
     inkscape:groupmode="layer"
     id="layer1"
     transform="translate(0,364.96067)"
     style="display:none">
    <path
       style="fill:none;fill-rule:evenodd;stroke:#000000;stroke-width:1px;stroke-linecap:butt;stroke-linejoin:miter;stroke-opacity:1"
       d="m 35.433071,-152.36228 0,141.73221 109.842519,0 0,-17.7165 -14.17323,0 0,-35.4331 14.17323,0 0,-35.43301 -14.17323,0 0,-35.4331 14.17323,0 0,-17.7165 z"
       id="path4168"
       inkscape:connector-curvature="0" />
    <path
       style="fill:none;fill-rule:evenodd;stroke:#000000;stroke-width:1px;stroke-linecap:butt;stroke-linejoin:miter;stroke-opacity:1"
       d="m 159.44882,-152.36228 162.99212,0 0,17.7165 17.71654,0 0,35.4331 -17.71654,0 0,35.43301 17.71654,0 0,35.4331 -17.71654,0 0,17.7165 -162.99212,0 0,-17.7165 -14.17323,0 0,-35.4331 14.17323,0 0,-35.43301 -14.17323,0 0,-35.4331 14.17323,0 z"
       id="path4170"
       inkscape:connector-curvature="0" />
    <path
       style="fill:none;fill-rule:evenodd;stroke:#000000;stroke-width:1px;stroke-linecap:butt;stroke-linejoin:miter;stroke-opacity:1"
       d="m 340.15748,-152.36228 49.6063,0 0,141.73221 -49.6063,0 0,-17.7165 14.17323,0 0,-35.4331 -14.17323,0 0,-35.43301 14.17323,0 0,-35.4331 -14.17323,0 z"
       id="path4172"
       inkscape:connector-curvature="0" />
  </g>
  <g
     inkscape:groupmode="layer"
     id="layer2"
     inkscape:label="Ebene 2"
     style="display:none">
    <path
       style="fill:none;fill-rule:evenodd;stroke:#000000;stroke-width:1px;stroke-linecap:butt;stroke-linejoin:miter;stroke-opacity:1"
       d="m 35.433071,212.59839 0,124.01571 17.716536,0 0,17.7165 35.43307,0 0,-17.7165 17.716533,0 0,17.7165 38.97638,0 0,-17.7165 -14.17323,0 0,-35.4331 14.17323,0 0,-35.43301 -14.17323,0 0,-35.4331 14.17323,0 0,-17.7165 z"
       id="path4193"
       inkscape:connector-curvature="0" />
    <path
       style="fill:none;fill-rule:evenodd;stroke:#000000;stroke-width:1px;stroke-linecap:butt;stroke-linejoin:miter;stroke-opacity:1"
       d="m 159.44882,212.59839 162.99212,0 0,17.7165 17.71654,0 0,35.4331 -17.71654,0 0,35.43301 17.71654,0 0,35.4331 -17.71654,0 0,17.7165 -42.24988,0 0,-17.7165 -43.31029,0 0,17.7165 -40.65864,0 0,-17.7165 -50.94654,0 0,-35.4331 14.17323,0 0,-35.43301 -14.17323,0 0,-35.4331 14.17323,0 z"
       id="path4195"
       inkscape:connector-curvature="0" />
    <path
       style="fill:none;fill-rule:evenodd;stroke:#000000;stroke-width:1px;stroke-linecap:butt;stroke-linejoin:miter;stroke-opacity:1"
       d="m 159.44882,354.3306 0,17.7166 0,31.8897 -14.17323,0 0,14.17326 14.17323,0 0,53.14961 36.77331,0 0,-24.80316 -26.14339,0 0,-28.34645 152.3622,0 0,-46.06296 -42.24988,0 0,-17.7166 -43.31029,0 0,17.7166 -40.65864,0 0,-17.7166 -36.77331,0 z"
       id="path4209"
       inkscape:connector-curvature="0" />
    <path
       style="display:inline;fill:none;fill-rule:evenodd;stroke:#000000;stroke-width:1px;stroke-linecap:butt;stroke-linejoin:miter;stroke-opacity:1"
       d="m 340.0864,212.77918 49.6063,0 0,141.73223 -49.6063,0 0,-17.7165 14.17323,0 0,-35.43311 -14.17323,0 0,-35.43301 14.17323,0 0,-35.4331 -14.17323,0 z"
       id="path4172-6"
       inkscape:connector-curvature="0" />
  </g>
  <g
     inkscape:groupmode="layer"
     id="layer6"
     inkscape:label="Ebene 3 Korrektur">
    <path
       style="fill:none;fill-rule:evenodd;stroke:#000000;stroke-width:1px;stroke-linecap:butt;stroke-linejoin:miter;stroke-opacity:1"
       d="m 159.44882,354.3306 0,49.6063 -14.17323,0 0,14.17326 14.17323,0 0,35.43306 -14.17323,0 0,17.71655 50.94654,0 c 0,0 0,-24.80316 0,-24.80316 l -26.14339,0 0,-28.34645 26.14339,0 0,-14.17326 126.21881,0 0,-31.8897 -42.24988,0 0,-17.7166 -43.31029,0 0,17.7166 -40.65864,0 0,-17.7166 z"
       id="path4283"
       inkscape:connector-curvature="0" />
  </g>
  <g
     inkscape:groupmode="layer"
     id="layer4"
     inkscape:label="Final"
     style="display:inline">
    <path
       style="display:inline;fill:none;fill-rule:evenodd;stroke:#000000;stroke-width:1px;stroke-linecap:butt;stroke-linejoin:miter;stroke-opacity:1"
       d="m 35.463345,212.50572 0,124.01572 17.716538,0 0,17.7165 35.433074,0 0,-17.7165 17.716543,0 0,17.7165 38.97638,0 0,-17.7165 -14.17323,0 0,-35.43311 14.17323,0 0,-35.43301 -14.17323,0 0,-35.4331 14.17323,0 0,-17.7165 z"
       id="path4193-0"
       inkscape:connector-curvature="0" />
    <path
       style="display:inline;fill:none;fill-rule:evenodd;stroke:#000000;stroke-width:1px;stroke-linecap:butt;stroke-linejoin:miter;stroke-opacity:1"
       d="m 159.47911,212.50572 162.99214,0 0,17.7165 17.71655,0 0,35.4331 -17.71655,0 0,35.43301 17.71655,0 0,35.43311 -17.71655,0 0,17.7165 -42.24988,0 0,-17.7165 -43.3103,0 0,17.7165 -40.65864,0 0,-17.7165 -50.94655,0 0,-35.43311 14.17323,0 0,-35.43301 -14.17323,0 0,-35.4331 14.17323,0 z"
       id="path4195-9"
       inkscape:connector-curvature="0" />
    <path
       style="display:inline;fill:none;fill-rule:evenodd;stroke:#000000;stroke-width:1px;stroke-linecap:butt;stroke-linejoin:miter;stroke-opacity:1"
       d="m 340.11672,212.68651 49.6063,0 0,141.73224 -49.6063,0 0,-17.7165 14.17323,0 0,-35.43312 -14.17323,0 0,-35.43301 14.17323,0 0,-35.4331 -14.17323,0 z"
       id="path4172-6-7"
       inkscape:connector-curvature="0" />
  </g>
</svg>
